<mxfile host="Electron" modified="2024-02-04T22:01:45.145Z" agent="Mozilla/5.0 (Windows NT 10.0; Win64; x64) AppleWebKit/537.36 (KHTML, like Gecko) draw.io/22.0.2 Chrome/114.0.5735.289 Electron/25.8.4 Safari/537.36" etag="22D1fCdCksLBNBcy-Dx-" version="22.0.2" type="device">
  <diagram name="Page-1" id="2aM_knb35Wx5F-_wXQSF">
    <mxGraphModel dx="689" dy="466" grid="1" gridSize="10" guides="1" tooltips="1" connect="1" arrows="1" fold="1" page="1" pageScale="1" pageWidth="1169" pageHeight="827" math="0" shadow="0">
      <root>
        <mxCell id="0" />
        <mxCell id="1" parent="0" />
        <mxCell id="20iCIZ5rHYu1TLF8V5hM-1" value="Circular buffer, objects written &#xa;to the buffer indictaed by index" style="shape=image;verticalLabelPosition=bottom;labelBackgroundColor=default;verticalAlign=top;aspect=fixed;imageAspect=0;image=data:image/svg+xml,PHN2ZyB4bWxucz0iaHR0cDovL3d3dy53My5vcmcvMjAwMC9zdmciIHZlcnNpb249IjEuMSIgdmlld0JveD0iMCAwIDEwMjQgMTAyNCIgc3R5bGU9IndpZHRoOiAxZW07IGhlaWdodDogMWVtO3ZlcnRpY2FsLWFsaWduOiBtaWRkbGU7ZmlsbDogY3VycmVudENvbG9yO292ZXJmbG93OiBoaWRkZW47IiBjbGFzcz0ic3ZnLWljb24iPjxwYXRoIGZpbGw9IiMyRTMyM0YiIGQ9Ik01OTUuMiAxMDI0SDQzMy40NzY5MjNjLTE0LjI3NjkyMyAwLTI2LjgzMDc2OS0xMC42MTQxNTQtMjkuNTM4NDYxLTI0LjY3NDQ2MmwtMTkuNDQ2MTU0LTEwMC40MzA3NjljLTE4LjQ2MTUzOC02LjE2MzY5Mi0zNS40NDYxNTQtMTIuODI5NTM4LTUxLjQ0NjE1NC0yMC43MjYxNTRsLTg1LjY2MTUzOSA1OC4yNGEzMC4xNzg0NjIgMzAuMTc4NDYyIDAgMCAxLTM4LjE1Mzg0Ni0zLjcwMjE1M0w5NS4wMTUzODUgODE3Ljk2OTIzMWEzMC4yOTY2MTUgMzAuMjk2NjE1IDAgMCAxLTMuNjkyMzA4LTM4LjI1MjMwOGw1Ny44NDYxNTQtODUuMzY2MTU0QTM3Ny4wNzgxNTQgMzc3LjA3ODE1NCAwIDAgMSAxMjggNjQyLjI4NDMwOGwtMTAwLjY3NjkyMy0xOS40OTUzODVjLTE0LjAzMDc2OS0yLjcxNzUzOC0yNS4xMDc2OTItMTUuMDU0NzY5LTI1LjEwNzY5Mi0yOS42MDczODVWNDMxLjA2NDYxNWMwLTE0LjMwNjQ2MiAxMS4wNzY5MjMtMjYuODg5ODQ2IDI1LjM1Mzg0Ni0yOS42MDczODRsOTkuNjkyMzA3LTE5LjI0OTIzMWE0MjAuNzY1NTM4IDQyMC43NjU1MzggMCAwIDEgMjAuOTIzMDc3LTUyLjMwMjc2OWwtNTcuMTA3NjkyLTg0LjM5MTM4NWMtOC4xMjMwNzctMTEuODQ0OTIzLTYuNC0yNy44ODQzMDggMy42OTIzMDgtMzguMjQyNDYxTDIwOS4yMzA3NjkgOTIuNzgwMzA4YTMwLjQ2NCAzMC40NjQgMCAwIDEgMzguMTUzODQ2LTMuNzAyMTU0bDgzLjkzODQ2MiA1Ny4yNDU1MzhjMTYuNzM4NDYyLTguMzg4OTIzIDM0LjQ2MTUzOC0xNS41NTY5MjMgNTMuMTY5MjMxLTIxLjcyMDYxNUw0MDMuNjkyMzA4IDI0LjY3NDQ2MkM0MDYuNCAxMC42MTQxNTQgNDE4LjcwNzY5MiAwIDQzMy4yMzA3NjkgMGgxNjEuNzIzMDc3YzE0LjI3NjkyMyAwIDI2LjgzMDc2OSAxMC42MTQxNTQgMjkuNTM4NDYyIDI0LjY3NDQ2MmwxOS4yIDk5LjY4MjQ2MWE0MDEuMjExMDc3IDQwMS4yMTEwNzcgMCAwIDEgNTIuOTIzMDc3IDIxLjIyODMwOGw4NC40MzA3NjktNTcuMjQ1NTM5YTMwLjE3ODQ2MiAzMC4xNzg0NjIgMCAwIDEgMzguMTUzODQ2IDMuNjkyMzA4TDkzMy40MTUzODUgMjA2Ljc2OTIzMWEzMC4yOTY2MTUgMzAuMjk2NjE1IDAgMCAxIDMuNjkyMzA3IDM4LjI1MjMwN2wtNTcuNiA4NC44NzM4NDdhNDE3LjY5MzUzOCA0MTcuNjkzNTM4IDAgMCAxIDIwLjkyMzA3NyA1MS41NzQxNTNsOTkuNjkyMzA4IDE5LjQ5NTM4NUMxMDE0LjE1Mzg0NiA0MDMuNjgyNDYyIDEwMjQgNDE2LjAxOTY5MiAxMDI0IDQzMC41NzIzMDh2MTYxLjYyNDYxNWMwIDE0LjMwNjQ2Mi05Ljg0NjE1NCAyNi44ODk4NDYtMjQuMTIzMDc3IDI5LjYwNzM4NWwtOTkuNDQ2MTU0IDE5LjQ5NTM4NGE0MjguNDY1MjMxIDQyOC40NjUyMzEgMCAwIDEtMjAuNjc2OTIzIDUyLjMwMjc3bDU4LjA5MjMwOCA4NS44NjgzMDdhMzAuMDUwNDYyIDMwLjA1MDQ2MiAwIDAgMS0zLjY5MjMwOCAzOC4yNTIzMDhMODE5LjY5MjMwOCA5MzIuMjE0MTU0Yy0xMC4wOTIzMDggMTAuMzU4MTU0LTI2LjA5MjMwOCAxMS44MzUwNzctMzguMTUzODQ2IDMuNjkyMzA4bC04NS42NjE1MzktNTguMjMwMTU0YTQwMS44MzEzODUgNDAxLjgzMTM4NSAwIDAgMS01MS45Mzg0NjEgMjEuMjE4NDYxbC0xOS40NDYxNTQgMTAwLjY3NjkyM0M2MjEuNzg0NjE1IDEwMTMuMzg1ODQ2IDYwOS40NzY5MjMgMTAyNCA1OTUuMiAxMDI0eiBtLTEzNy4xMDc2OTItNjEuNjg2MTU0aDExMi4yNDYxNTRsMTcuOTY5MjMtOTMuMjcyNjE1YTI5LjYzNjkyMyAyOS42MzY5MjMgMCAwIDEgMjEuMTY5MjMxLTIyLjk0MTUzOWMyNi41ODQ2MTUtNy42NTA0NjIgNTEuNDQ2MTU0LTE3Ljc3MjMwOCA3My42LTMwLjEwOTUzOCA5Ljg0NjE1NC01LjQyNTIzMSAyMi4xNTM4NDYtNC45MzI5MjMgMzEuNTA3NjkyIDEuNDc2OTIzbDgwIDU0LjUzNzg0NiA3OS4yNjE1MzktNzkuNDU4NDYxLTU0LjE1Mzg0Ni04MC4xODcwNzdhMjkuODMzODQ2IDI5LjgzMzg0NiAwIDAgMS0xLjIzMDc3LTMxLjU4NjQ2MmMxMS44MTUzODUtMjEuNDY0NjE1IDIxLjY2MTUzOC00NS42NDY3NjkgMjkuNTM4NDYyLTc0LjAyMzM4NSAyLjk1Mzg0Ni0xMC44NjAzMDggMTEuMDc2OTIzLTE5LjI0OTIzMSAyMi4xNTM4NDYtMjEuMjE4NDYxbDkyLjMwNzY5Mi0xOC4wMTg0NjJWNDU1LjAxMDQ2MmwtOTIuMzA3NjkyLTE4LjI1NDc3Yy0xMS4wNzY5MjMtMi4yMjUyMzEtMTkuNDQ2MTU0LTEwLjM2OC0yMi42NDYxNTQtMjEuMjI4MzA3LTcuNjMwNzY5LTI2Ljg4OTg0Ni0xNy40NzY5MjMtNTEuNTY0MzA4LTI5LjUzODQ2MS03My41MzEwNzdhMzAuMzk1MDc3IDMwLjM5NTA3NyAwIDAgMSAxLjQ3NjkyMy0zMS41NzY2MTZsNTMuNjYxNTM4LTc5LjIxMjMwNy03OS4yNjE1MzgtNzkuNDQ4NjE2LTc4Ljc2OTIzMSA1My41NDMzODVjLTkuMzUzODQ2IDYuNDE5NjkyLTIxLjY2MTUzOCA2LjkxMi0zMS41MDc2OTIgMS4yMzA3NjktMjEuMTY5MjMxLTExLjgzNTA3Ny00NS41Mzg0NjItMjEuNzEwNzY5LTc0LjMzODQ2Mi0yOS44NTM1MzgtMTAuODMwNzY5LTIuOTUzODQ2LTE5LjItMTEuNTk4NzY5LTIxLjE2OTIzMS0yMi42OTUzODVsLTE3LjcyMzA3Ni05Mi4yODhINDU3Ljg0NjE1NGwtMTcuOTY5MjMxIDkyLjUzNDE1NGEyOS42MzY5MjMgMjkuNjM2OTIzIDAgMCAxLTIxLjE2OTIzMSAyMi45NDE1MzhjLTI3LjMyMzA3NyA3LjY1MDQ2Mi01Mi40MzA3NjkgMTguMDE4NDYyLTc0LjgzMDc2OSAzMC42MDE4NDYtOS44NDYxNTQgNS40MjUyMzEtMjIuMTUzODQ2IDQuOTIzMDc3LTMxLjUwNzY5Mi0xLjQ3NjkyM2wtNzguMjc2OTIzLTUzLjMwNzA3Ny03OS4yNjE1MzkgNzkuNDU4NDYyIDUzLjQxNTM4NSA3OC45NTYzMDhjNi40IDkuMzczNTM4IDYuODkyMzA4IDIxLjQ2NDYxNSAxLjQ3NjkyMyAzMS4zNDAzMDctMTEuODE1Mzg1IDIxLjIxODQ2Mi0yMS40MTUzODUgNDUuMzkwNzY5LTI5LjI5MjMwOCA3My43NzcyMzEtMi45NTM4NDYgMTEuMDk2NjE1LTEyLjMwNzY5MiAxOS4yMzkzODUtMjMuMzg0NjE1IDIxLjQ2NDYxNmwtOTMuMDQ2MTU0IDE4LjAxODQ2MXYxMTIuNTEybDkzLjI5MjMwOCAxOC4wMTg0NjJjMTEuMDc2OTIzIDIuMjE1Mzg1IDIwLjE4NDYxNSAxMC4zNTgxNTQgMjMuMTM4NDYxIDIxLjIwODYxNSA3LjYzMDc2OSAyNi44OTk2OTIgMTcuNzIzMDc3IDUxLjU3NDE1NCAzMC4yNzY5MjMgNzMuNzc3MjMxIDUuNDE1Mzg1IDkuODc1NjkyIDQuOTIzMDc3IDIyLjIxMjkyMy0xLjIzMDc2OSAzMS41ODY0NjFsLTU0LjE1Mzg0NiA3OS45NTA3NyA3OS4yNjE1MzggNzkuNDQ4NjE1TDMxNC41ODQ2MTUgODE4LjIxNTM4NWM5LjM1Mzg0Ni02LjQxOTY5MiAyMS40MTUzODUtNi45MTIgMzEuNTA3NjkzLTEuNDc2OTIzIDIxLjE2OTIzMSAxMS44MzUwNzcgNDUuMDQ2MTU0IDIxLjQ2NDYxNSA3My4xMDc2OTIgMjkuMzYxMjMgMTAuODMwNzY5IDMuMiAxOS4yIDExLjU4ODkyMyAyMS4xNjkyMzEgMjIuNjk1Mzg1bDE3LjcyMzA3NyA5My41MTg3Njl6TTk5NC40NjE1MzggNjAyLjA2Mjc2OWgwLjQ5MjMwOC0wLjQ5MjMwOHogbS00ODAuMjQ2MTUzIDE0Ni4zMTM4NDZjLTYyLjUyMzA3NyAwLTEyMS44NDYxNTQtMjQuNDE4NDYyLTE2Ni44OTIzMDgtNjkuMzI2NzY5LTUzLjY2MTUzOC01My43ODk1MzgtNzcuNzg0NjE1LTEyOC4zMTUwNzctNjYuMjE1Mzg1LTIwNC41NTM4NDYgMTUuMjYxNTM4LTEwMC40MzA3NjkgOTYtMTgxLjExMDE1NCAxOTYuMTg0NjE2LTE5Ni42NTcyMzEgNzUuNTY5MjMxLTExLjU5ODc2OSAxNTAuMTUzODQ2IDEyLjU4MzM4NSAyMDMuODE1Mzg0IDY2LjM3MjkyMyA1My42NjE1MzggNTMuNzg5NTM4IDc4LjAzMDc2OSAxMjguMzA1MjMxIDY2LjQ2MTUzOSAyMDQuNTUzODQ2LTE1LjI2MTUzOCAxMDAuNDMwNzY5LTk2IDE4MS4xMTAxNTQtMTk1LjkzODQ2MiAxOTYuNjU3MjMxLTEyLjU1Mzg0NiAxLjk2OTIzMS0yNS4xMDc2OTIgMi45NTM4NDYtMzcuNDE1Mzg0IDIuOTUzODQ2eiBtMzIuNzM4NDYxLTI1LjQwMzA3N2gwLjQ5MjMwOC0wLjQ5MjMwOHogbS0zMi40OTIzMDgtMzg3LjY0MzA3NmMtOS4zNTM4NDYgMC0xOC40NjE1MzggMC43Mzg0NjItMjguMDYxNTM4IDIuMjE1Mzg0LTczLjM1Mzg0NiAxMS4zNTI2MTUtMTM0LjY0NjE1NCA3Mi43OTI2MTUtMTQ1Ljk2OTIzMSAxNDYuMDc3NTM5LTguNjE1Mzg1IDU2Ljk5OTM4NSA5LjM1Mzg0NiAxMTIuNzY4IDQ5LjQ3NjkyMyAxNTIuOTc5NjkyIDQwLjEyMzA3NyA0MC4yMjE1MzggOTUuNzUzODQ2IDU4LjI0IDE1Mi42MTUzODUgNDkuNjA0OTIzIDczLjM1Mzg0Ni0xMS4zNTI2MTUgMTM0LjY0NjE1NC03Mi43OTI2MTUgMTQ1LjcyMzA3Ny0xNDYuMzIzNjkyIDguNjE1Mzg1LTU3LjAwOTIzMS05LjM1Mzg0Ni0xMTIuNzY4LTQ5LjQ3NjkyMy0xNTIuOTg5NTM5LTMzLjQ3NjkyMy0zMy41NTU2OTItNzcuNTM4NDYyLTUxLjU2NDMwOC0xMjQuMzA3NjkzLTUxLjU2NDMwN3oiLz48L3N2Zz4=;" vertex="1" parent="1">
          <mxGeometry x="420" y="160" width="164" height="164" as="geometry" />
        </mxCell>
        <mxCell id="20iCIZ5rHYu1TLF8V5hM-2" value="Writing Source Opens Stream&lt;br&gt;Writes Objects &lt;br&gt;with time stamps" style="shape=delay;whiteSpace=wrap;html=1;strokeWidth=5;" vertex="1" parent="1">
          <mxGeometry x="51" y="188" width="190" height="108" as="geometry" />
        </mxCell>
        <mxCell id="20iCIZ5rHYu1TLF8V5hM-3" value="" style="shape=singleArrow;whiteSpace=wrap;html=1;strokeWidth=3;" vertex="1" parent="1">
          <mxGeometry x="271" y="212" width="100" height="60" as="geometry" />
        </mxCell>
        <mxCell id="20iCIZ5rHYu1TLF8V5hM-4" value="" style="shape=singleArrow;whiteSpace=wrap;html=1;strokeWidth=3;" vertex="1" parent="1">
          <mxGeometry x="640" y="76" width="100" height="60" as="geometry" />
        </mxCell>
        <mxCell id="20iCIZ5rHYu1TLF8V5hM-5" value="Reader can read next frame in sequence or read by index" style="shape=delay;whiteSpace=wrap;html=1;strokeWidth=5;" vertex="1" parent="1">
          <mxGeometry x="800" y="52" width="190" height="108" as="geometry" />
        </mxCell>
        <mxCell id="20iCIZ5rHYu1TLF8V5hM-8" value="" style="shape=singleArrow;whiteSpace=wrap;html=1;strokeWidth=3;" vertex="1" parent="1">
          <mxGeometry x="640" y="212" width="100" height="60" as="geometry" />
        </mxCell>
        <mxCell id="20iCIZ5rHYu1TLF8V5hM-9" value="Reader can read next frame in sequence or read by index" style="shape=delay;whiteSpace=wrap;html=1;strokeWidth=5;" vertex="1" parent="1">
          <mxGeometry x="800" y="188" width="190" height="108" as="geometry" />
        </mxCell>
        <mxCell id="20iCIZ5rHYu1TLF8V5hM-10" value="" style="shape=singleArrow;whiteSpace=wrap;html=1;strokeWidth=3;" vertex="1" parent="1">
          <mxGeometry x="640" y="348" width="100" height="60" as="geometry" />
        </mxCell>
        <mxCell id="20iCIZ5rHYu1TLF8V5hM-11" value="Reader can read next frame in sequence or read by index" style="shape=delay;whiteSpace=wrap;html=1;strokeWidth=5;" vertex="1" parent="1">
          <mxGeometry x="800" y="324" width="190" height="108" as="geometry" />
        </mxCell>
      </root>
    </mxGraphModel>
  </diagram>
</mxfile>
